<?xml version="1.0" encoding="UTF-8" standalone="no"?>
<!DOCTYPE svg PUBLIC "-//W3C//DTD SVG 1.1//EN"
 "http://www.w3.org/Graphics/SVG/1.1/DTD/svg11.dtd">
<!-- Generated by graphviz version 2.43.0 (0)
 -->
<!-- Title: javascript 學習地圖 Pages: 1 -->
<svg width="625pt" height="154pt"
 viewBox="0.00 0.00 625.14 154.35" xmlns="http://www.w3.org/2000/svg" xmlns:xlink="http://www.w3.org/1999/xlink">
<g id="graph0" class="graph" transform="scale(1 1) rotate(0) translate(4 150.35)">
<title>javascript 學習地圖</title>
<polygon fill="white" stroke="transparent" points="-4,4 -4,-150.35 621.14,-150.35 621.14,4 -4,4"/>
<!-- index -->
<g id="node1" class="node">
<title>index</title>
<ellipse fill="none" stroke="black" cx="48.1" cy="-67.87" rx="48.19" ry="18"/>
<text text-anchor="middle" x="48.1" y="-64.17" font-family="Times,serif" font-size="14.00">縣市列表</text>
</g>
<!-- city_routes -->
<g id="node2" class="node">
<title>city_routes</title>
<ellipse fill="none" stroke="black" cx="194.42" cy="-67.87" rx="62.45" ry="26.74"/>
<text text-anchor="middle" x="194.42" y="-71.67" font-family="Times,serif" font-size="14.00">某縣市所有</text>
<text text-anchor="middle" x="194.42" y="-56.67" font-family="Times,serif" font-size="14.00">公車路線</text>
</g>
<!-- index&#45;&gt;city_routes -->
<g id="edge1" class="edge">
<title>index&#45;&gt;city_routes</title>
<path fill="none" stroke="black" d="M96.35,-67.87C104.56,-67.87 113.27,-67.87 121.96,-67.87"/>
<polygon fill="black" stroke="black" points="122.12,-71.37 132.12,-67.87 122.12,-64.37 122.12,-71.37"/>
</g>
<!-- route_est -->
<g id="node3" class="node">
<title>route_est</title>
<ellipse fill="none" stroke="black" cx="364.77" cy="-67.87" rx="72.25" ry="37.45"/>
<text text-anchor="middle" x="364.77" y="-79.17" font-family="Times,serif" font-size="14.00">某路線</text>
<text text-anchor="middle" x="364.77" y="-64.17" font-family="Times,serif" font-size="14.00">所有站牌</text>
<text text-anchor="middle" x="364.77" y="-49.17" font-family="Times,serif" font-size="14.00">預估到站時間</text>
</g>
<!-- city_routes&#45;&gt;route_est -->
<g id="edge2" class="edge">
<title>city_routes&#45;&gt;route_est</title>
<path fill="none" stroke="black" d="M256.67,-67.87C265.05,-67.87 273.76,-67.87 282.42,-67.87"/>
<polygon fill="black" stroke="black" points="282.56,-71.37 292.56,-67.87 282.56,-64.37 282.56,-71.37"/>
</g>
<!-- stop_est -->
<g id="node4" class="node">
<title>stop_est</title>
<ellipse fill="none" stroke="black" cx="545.02" cy="-108.87" rx="72.25" ry="37.45"/>
<text text-anchor="middle" x="545.02" y="-120.17" font-family="Times,serif" font-size="14.00">經過某站牌</text>
<text text-anchor="middle" x="545.02" y="-105.17" font-family="Times,serif" font-size="14.00">所有路線</text>
<text text-anchor="middle" x="545.02" y="-90.17" font-family="Times,serif" font-size="14.00">預估到站時間</text>
</g>
<!-- route_est&#45;&gt;stop_est -->
<g id="edge3" class="edge">
<title>route_est&#45;&gt;stop_est</title>
<path fill="none" stroke="black" d="M434.68,-77.13C447.64,-79.91 461.2,-83.02 474.19,-86.2"/>
<polygon fill="black" stroke="black" points="473.44,-89.62 483.99,-88.64 475.13,-82.83 473.44,-89.62"/>
</g>
<!-- time_table -->
<g id="node5" class="node">
<title>time_table</title>
<ellipse fill="none" stroke="black" cx="545.02" cy="-26.87" rx="62.45" ry="26.74"/>
<text text-anchor="middle" x="545.02" y="-30.67" font-family="Times,serif" font-size="14.00">某路線</text>
<text text-anchor="middle" x="545.02" y="-15.67" font-family="Times,serif" font-size="14.00">發車時刻表</text>
</g>
<!-- route_est&#45;&gt;time_table -->
<g id="edge5" class="edge">
<title>route_est&#45;&gt;time_table</title>
<path fill="none" stroke="black" d="M425.62,-47.69C441.45,-43.67 458.66,-39.65 474.94,-36.16"/>
<polygon fill="black" stroke="black" points="475.86,-39.55 484.93,-34.06 474.42,-32.69 475.86,-39.55"/>
</g>
<!-- stop_est&#45;&gt;route_est -->
<g id="edge4" class="edge">
<title>stop_est&#45;&gt;route_est</title>
<path fill="none" stroke="black" d="M475.09,-99.61C462.09,-96.82 448.47,-93.7 435.45,-90.5"/>
<polygon fill="black" stroke="black" points="436.17,-87.08 425.62,-88.05 434.47,-93.87 436.17,-87.08"/>
</g>
<!-- time_table&#45;&gt;route_est -->
<g id="edge6" class="edge">
<title>time_table&#45;&gt;route_est</title>
<path fill="none" stroke="black" d="M496.52,-43.84C480.52,-48.1 462.21,-52.54 444.47,-56.48"/>
<polygon fill="black" stroke="black" points="443.71,-53.06 434.68,-58.61 445.2,-59.9 443.71,-53.06"/>
</g>
</g>
</svg>
